<?xml version="1.0" encoding="UTF-8"?>
<svg id="Layer_1" xmlns="http://www.w3.org/2000/svg" xmlns:xlink="http://www.w3.org/1999/xlink" version="1.1" viewBox="0 0 281.7 142.7">
  <!-- Generator: Adobe Illustrator 29.2.1, SVG Export Plug-In . SVG Version: 2.1.0 Build 116)  -->
  <defs>
    <style>
      .st0 {
        isolation: isolate;
        opacity: .2;
      }

      .st0, .st1 {
        fill: #ed1c24;
      }

      .st2, .st3, .st4 {
        stroke-width: .3px;
      }

      .st2, .st3, .st4, .st5, .st6 {
        fill: none;
        stroke: #ed1c24;
        stroke-miterlimit: 10;
      }

      .st3 {
        stroke-dasharray: 2;
      }

      .st4 {
        stroke-dasharray: 2;
      }

      .st5 {
        stroke-dasharray: 2.1;
        stroke-width: .3px;
      }

      .st6 {
        stroke-dasharray: 2.1;
        stroke-width: .3px;
      }

      .st7 {
        display: none;
      }
    </style>
  </defs>
  <g id="Logo">
    <g>
      <path d="M138,76.1c0,4.6-2.5,7.8-7.9,7.8s-8-3.1-8-7.6v-27.8h-11.5v27.4c0,10.8,6.5,17.2,19.5,17.2s19.4-6.5,19.4-17.2v-27.4h-11.5v27.6h0Z"/>
      <path d="M175.6,58.1c-4.6,0-7.8,1.9-10.3,5.5h-.2v-4.6h-10.2v33.2h10.6v-18.4c0-4.1,2.3-7,5.8-7s5.2,2.4,5.2,5.9v19.5h10.6v-21.6c0-7.4-4.3-12.6-11.6-12.6Z"/>
      <rect x="192.6" y="59.1" width="10.6" height="33.2"/>
      <rect x="192.6" y="45.9" width="10.6" height="8.6"/>
      <path d="M221.8,48.5h-10.3v10.5h-4.4v8.6h4.4v15.9c0,7.1,4.4,9.2,10.6,9.2s4.9-.3,5.8-.5v-7.7c-.4,0-1.4,0-2.3,0-2.3,0-3.7-.7-3.7-3.2v-13.6h6v-8.6h-6v-10.5Z"/>
      <path d="M250.4,73.2c-1,3.2-2,7.7-2,7.7h-.1s-1-4.4-2.1-7.7l-4.5-14.2h-11.2l9.8,25.6c1.4,3.5,2,5.5,2,6.9,0,2.3-1.2,3.5-4.4,3.5h-3.6v8.2h6.9c6.7,0,9.9-2.7,12.5-10.5l11.5-33.7h-10.6l-4.3,14.2Z"/>
      <path d="M49.1,40.6l15.3,8.8c.6.3.6,1.2,0,1.5l-18.2,10.5c-.6.3-1.2.3-1.7,0l-18.2-10.5c-.6-.3-.6-1.2,0-1.5l15.3-8.8v-17.3L2.6,45.9v45.1-.2.2l15-8.6v-17.7c0-.6.7-1.1,1.3-.7l18.2,10.5c.6.3.9.9.9,1.5v21c0,.6-.7,1.1-1.3.7l-15.3-8.8-15,8.6,39,22.5,39-22.5-15-8.6-15.3,8.8c-.5.3-1.3,0-1.3-.7v-21c0-.6.3-1.2.9-1.5l18.2-10.5c.5-.3,1.3,0,1.3.7v17.7l15,8.6v-45.1l-39-22.5v17.3Z"/>
      <path d="M279.9,61.7c-.2-.5-.5-1-.9-1.3s-.8-.7-1.4-.9-1.1-.3-1.6-.3-1.1.1-1.6.3c-.5.2-1,.5-1.4.9s-.7.8-.9,1.3-.3,1.1-.3,1.7.1,1.1.3,1.7.5,1,.9,1.3.8.7,1.4.9,1.1.3,1.6.3,1.1-.1,1.6-.3c.5-.2,1-.5,1.4-.9.4-.4.7-.8.9-1.3s.3-1.1.3-1.7-.1-1.1-.3-1.7ZM278.8,64.9c-.3.5-.7.9-1.2,1.2-.5.3-1,.4-1.6.4s-1.1-.1-1.6-.4-.9-.7-1.2-1.2-.4-1-.4-1.6.1-1.1.4-1.6c.3-.5.7-.9,1.2-1.2.5-.3,1-.4,1.6-.4s1.1.1,1.6.4.9.7,1.2,1.2.4,1,.4,1.6-.1,1.1-.4,1.6Z"/>
      <path d="M277.5,63.3c.1-.2.2-.4.2-.7s0-.5-.2-.7c-.1-.2-.3-.3-.5-.4s-.4-.1-.5-.1h-2v3.9h.9v-1.3h.9l.7,1.3h.9l-.8-1.5c.2-.1.3-.2.4-.4ZM276.5,63.1c-.1.1-.3.2-.4.2h-.8v-1.3h.8c.1,0,.2,0,.4.1.1,0,.2.2.2.5s0,.4-.2.5Z"/>
    </g>
  </g>
  <g id="Guides" class="st7">
    <line class="st5" x1="-42" y1="45.9" x2="324.9" y2="45.9"/>
    <line class="st5" x1="-42" y1="92.3" x2="324.9" y2="92.3"/>
    <line class="st4" x1="2.6" y1="164.6" x2="2.6" y2="-21.3"/>
    <line class="st4" x1="73.2" y1="164.6" x2="73.2" y2="-21.3"/>
    <line class="st3" x1="154.9" y1="164.6" x2="154.9" y2="-21.3"/>
    <line class="st3" x1="187.1" y1="164.6" x2="187.1" y2="-21.3"/>
    <line class="st3" x1="192.6" y1="164.6" x2="192.6" y2="-21.3"/>
    <line class="st4" x1="265.3" y1="164.6" x2="265.3" y2="-21.3"/>
    <line class="st4" x1="271.8" y1="-21.3" x2="271.8" y2="164.6"/>
    <line class="st4" x1="280.2" y1="-21.3" x2="280.2" y2="164.6"/>
    <g>
      <line class="st2" x1="-3.4" y1="25.1" x2="-3.4" y2="117.1"/>
      <rect class="st1" x="-4.3" y="24.9" width="2" height=".3"/>
      <rect class="st1" x="-4.3" y="117" width="2" height=".3"/>
    </g>
    <path class="st1" d="M266.4,143.1h.1c0,0,.1,0,.2,0,0,0,0,0,0-.1l.5-1.6s0,0,0,0c0,0,0,0,0,0,0,0,0,0,0,0,0,0,0,0-.1,0h-.2s0,0,0,0h0s.1,0,.2,0,.2,0,.3,0h0s0,0,0,0h0c0,0-.5,2-.5,2,0,0,0,0,0,0h0c0,0,0,.1,0,.1s.1,0,.2,0h0c0,0-.9,0-.9,0h0q0,0,0,0Z"/>
    <path class="st1" d="M268.7,141h.2l-.8,2.2h-.2l.8-2.2Z"/>
    <path class="st1" d="M269,143.2c-.1,0-.1,0-.1-.2s0,0,0-.1,0,0,0,0,.1,0,.2,0c0,0,.2.1.2.1.1,0,.3,0,.4-.2.1-.1.2-.3.2-.5s0-.4-.2-.5c0,0-.3-.1-.5-.1h0c0,0,.4-.8.4-.8h.9v.2h-.8v.3c0,0,.3.1.4.2s.2.3.2.5-.1.5-.3.7c-.2.2-.4.3-.7.3,0,0-.1,0-.2,0Z"/>
    <path class="st1" d="M267.5,145c-.1.1-.2.2-.2.3-.1.2-.2.4-.3.6,0,.2-.1.4-.1.6,0,.2,0,.3,0,.4,0,.2,0,.3,0,.4s0,.3.1.5h0c-.1-.2-.2-.4-.2-.6,0-.2,0-.4,0-.6s0-.5.1-.7c.1-.3.4-.6.7-.9h0Z"/>
    <path class="st1" d="M267.6,147.6s0,0,0,0,0,0,0,0,0,0,0,0h0s0,0,0,0h0s.1,0,.3-.2.2-.2.2-.3,0-.2,0-.4c0-.2,0-.3-.1-.5,0-.2-.1-.3-.1-.4,0,0-.1-.1-.2-.1h0s0,0,0,0h0c0,0,.4-.1.4-.1h0s0,.1.2.4c0,.2.1.4.1.5v.4c.2-.2.3-.3.3-.4.1-.2.2-.3.2-.4s0,0,0,0c0,0,0,0,0,0h0s0,0,0,0,0,0,0-.1,0,0,0,0,0,0,.1,0,.1,0,.1,0,0,0,0,.2c0,.1,0,.3-.2.6-.1.2-.2.4-.3.6-.1.2-.3.4-.4.5-.2.2-.3.3-.4.3s0,0-.1,0,0,0,0-.1c0,0,0,0,0-.1Z"/>
    <path class="st1" d="M269.1,147.7c.1-.1.2-.2.3-.3.1-.2.2-.3.2-.6,0-.2.1-.4.1-.5s0-.3,0-.5,0-.4,0-.5,0-.3-.1-.4h0c.1.1.2.3.2.5,0,.2,0,.4,0,.6s0,.5-.1.6c-.1.3-.4.7-.8,1h0Z"/>
    <path class="st1" d="M187.7,143.1h.1c0,0,.1,0,.2,0,0,0,0,0,0-.1l.4-1.6s0,0,0,0c0,0,0,0,0,0,0,0,0,0,0,0,0,0,0,0-.1,0h-.2s0,0,0,0h0s.1,0,.2,0,.2,0,.3,0h0s0,0,0,0h0c0,0-.5,2-.5,2,0,0,0,0,0,0h0c0,0,0,.1,0,.1s.1,0,.2,0h0c0,0-.9,0-.9,0h0q0,0,0,0Z"/>
    <path class="st1" d="M190,141h.2l-.8,2.2h-.2l.8-2.2Z"/>
    <path class="st1" d="M188.9,145c-.1.1-.2.2-.2.3-.1.2-.2.4-.3.6,0,.2-.1.4-.1.6,0,.2,0,.3,0,.4,0,.2,0,.3,0,.4s0,.3.1.5h0c-.1-.2-.2-.4-.2-.6,0-.2,0-.4,0-.6s0-.5.1-.7c.1-.3.4-.6.7-.9h0Z"/>
    <path class="st1" d="M188.9,147.6s0,0,0,0,0,0,0,0c0,0,0,0,0,0h0s0,0,0,0h0c0,0,.1,0,.3-.2s.2-.2.2-.3,0-.2,0-.4c0-.2,0-.3-.1-.5,0-.2-.1-.3-.1-.4,0,0-.1-.1-.2-.1h0s0,0,0,0h0c0,0,.4-.1.4-.1h0s0,.1.2.4c0,.2.1.4.1.5v.4c.2-.2.3-.3.3-.4.1-.2.2-.3.2-.4s0,0,0,0c0,0,0,0,0,0h0s0,0,0,0,0,0,0-.1,0,0,0,0,0,0,.1,0,.1,0,.1,0,0,0,0,.2c0,.1,0,.3-.2.6-.1.2-.2.4-.3.6-.1.2-.3.4-.4.5-.2.2-.3.3-.4.3s0,0-.1,0,0,0,0-.1c0,0,0,0,0-.1Z"/>
    <path class="st1" d="M190.5,147.7c.1-.1.2-.2.3-.3.1-.2.2-.3.2-.6,0-.2.1-.4.1-.5s0-.3,0-.5,0-.4,0-.5,0-.3-.1-.4h0c.1.1.2.3.2.5,0,.2,0,.4,0,.6s0,.5-.1.6c-.1.3-.4.7-.8,1h0Z"/>
    <path class="st1" d="M79.5,141c0,.1-.2.2-.2.3-.1.2-.2.4-.3.6,0,.2,0,.4-.1.6,0,.2,0,.3,0,.4,0,.2,0,.3,0,.4s0,.3.1.5h0c-.1-.2-.2-.4-.2-.6,0-.2,0-.4,0-.6s0-.5.1-.7c.1-.3.4-.6.7-.9h0Z"/>
    <path class="st1" d="M79.5,143s0,0,0,0,0,0,0,0c0,0,0,0,0,0h0s0,0,0,0h0s0,0,0,0,0,0,.1-.1c0,0,.1-.2.3-.4,0,0,0,0,0-.2,0-.1,0-.2,0-.3s0-.1,0-.1c0,0,0,0,0,0s0,0,0,0c0,0,0,0,0,0h0c0,0,.2-.1.2-.1,0,0,0,0,.1,0s0,0,0,0c0,0,0,0,0,0,0,0,0,.1,0,.3v.2c.1-.1.2-.2.3-.3,0,0,0-.1.1-.1,0,0,0,0,.1,0s0,0,0,0c0,0,0,0,0,.1s0,0,0,0,0,0,0,0h0s0,0,0,0h0s0,0,0,0h0c0,0-.1,0-.2.2s-.1.2-.1.2,0,0,0,.2,0,.2,0,.3c0,0,0,.2,0,.2,0,0,0,0,0,0s0,0,0,0,0,0,.1-.2h0c0,.1,0,.2-.1.2,0,.1-.2.2-.3.2s0,0-.1,0c0,0,0,0,0-.1v-.4c0,0-.4.4-.4.4,0,0-.1.1-.2.1,0,0,0,0-.1,0s-.1,0-.1,0c0,0,0,0,0,0,0,0,0-.1,0-.1Z"/>
    <path class="st1" d="M81.1,143.7c.1-.1.2-.2.3-.3,0-.2.2-.3.2-.6,0-.2,0-.4.1-.5s0-.3,0-.5,0-.4,0-.5c0-.1,0-.3-.1-.4h0c0,.1.2.3.2.5,0,.2,0,.4,0,.6s0,.5-.1.6c-.1.3-.4.7-.8,1h0Z"/>
    <path class="st1" d="M96.2,143.1h.1c0,0,.1,0,.2,0,0,0,0,0,0-.1l.4-1.6s0,0,0,0c0,0,0,0,0,0,0,0,0,0,0,0,0,0,0,0-.1,0h-.2s0,0,0,0h0s.1,0,.2,0,.2,0,.3,0h0s0,0,0,0h0c0,0-.5,2-.5,2,0,0,0,0,0,0h0c0,0,0,.1,0,.1s.1,0,.2,0h0c0,0-.9,0-.9,0h0q0,0,0,0Z"/>
    <path class="st1" d="M98.1,143.2s0,0,0-.1,0,0,0-.1,0,0,.1,0,0,0,.1,0,0,0,0,.1,0,0,0,.1c0,0,0,0-.1,0s-.1,0-.1,0Z"/>
    <path class="st1" d="M98.7,143.2c-.1,0-.1,0-.1-.2s0,0,0-.1,0,0,0,0,.1,0,.2,0,.2.1.2.1c.1,0,.3,0,.4-.2.1-.1.2-.3.2-.5s0-.4-.2-.5c0,0-.3-.1-.5-.1h0c0,0,.4-.8.4-.8h.9v.2h-.8v.3c.1,0,.3.1.4.2s.2.3.2.5-.1.5-.3.7c-.2.2-.4.3-.7.3,0,0-.1,0-.2,0Z"/>
    <path class="st1" d="M102.1,141c-.1.1-.2.2-.2.3-.1.2-.2.4-.3.6,0,.2-.1.4-.1.6,0,.2,0,.3,0,.4,0,.2,0,.3,0,.4s0,.3.1.5h0c-.1-.2-.2-.4-.2-.6,0-.2,0-.4,0-.6s0-.5.1-.7c.1-.3.4-.6.7-.9h0Z"/>
    <path class="st1" d="M102.1,143s0,0,0,0,0,0,0,0c0,0,0,0,0,0h0s0,0,0,0h0s0,0,0,0c0,0,0,0,.1-.1,0,0,.1-.2.3-.4,0,0,0,0,0-.2,0-.1,0-.2,0-.3s0-.1,0-.1c0,0,0,0,0,0s0,0,0,0c0,0,0,0,0,0h0c0,0,.2-.1.2-.1,0,0,0,0,.1,0,0,0,0,0,.1,0,0,0,0,0,.1,0,0,0,0,.1,0,.3v.2c.1-.1.2-.2.3-.3s0-.1.1-.1c0,0,0,0,.1,0s0,0,0,0c0,0,0,0,0,.1s0,0,0,0,0,0,0,0h0s0,0,0,0h0s0,0,0,0h0c0,0-.1,0-.2.2s-.1.2-.1.2,0,0,0,.2,0,.2,0,.3c0,0,0,.2,0,.2,0,0,0,0,0,0s0,0,0,0,0,0,.1-.2h0c0,.1,0,.2-.1.2,0,.1-.2.2-.3.2s-.1,0-.1,0c0,0,0,0,0-.1v-.4c-.1,0-.4.4-.4.4,0,0-.1.1-.1.1,0,0,0,0-.1,0s-.1,0-.1,0c0,0,0,0,0,0,0,0,0-.1,0-.1Z"/>
    <path class="st1" d="M103.7,143.7c.1-.1.2-.2.3-.3.1-.2.2-.3.2-.6,0-.2.1-.4.1-.5s0-.3,0-.5,0-.4,0-.5,0-.3-.1-.4h0c.1.1.2.3.2.5,0,.2,0,.4,0,.6s0,.5-.1.6c-.1.3-.4.7-.8,1h0Z"/>
    <path class="st1" d="M170.2,141c-.1.1-.2.2-.2.3-.1.2-.2.4-.3.6,0,.2-.1.4-.1.6,0,.2,0,.3,0,.4,0,.2,0,.3,0,.4s0,.3.1.5h0c-.1-.2-.2-.4-.2-.6,0-.2,0-.4,0-.6s0-.5.1-.7c.1-.3.4-.6.7-.9h0Z"/>
    <path class="st1" d="M170.2,143.6s0,0,0,0,0,0,0,0c0,0,0,0,0,0h0s0,0,0,0h0c0,0,.1,0,.3-.2s.2-.2.2-.3,0-.2,0-.4c0-.2,0-.3-.1-.5,0-.2-.1-.3-.1-.4,0,0-.1-.1-.2-.1h0s0,0,0,0h0c0,0,.4-.1.4-.1h0s0,.1.2.4c0,.2.1.4.1.5v.4c.2-.2.3-.3.3-.4.1-.2.2-.3.2-.4s0,0,0,0c0,0,0,0,0,0h0s0,0,0,0,0,0,0-.1,0,0,0,0,0,0,.1,0,.1,0,.1,0,0,0,0,.2c0,.1,0,.3-.2.6-.1.2-.2.4-.3.6-.1.2-.3.4-.4.5-.2.2-.3.3-.4.3s0,0-.1,0,0,0,0-.1c0,0,0,0,0-.1Z"/>
    <path class="st1" d="M171.8,143.7c.1-.1.2-.2.3-.3.1-.2.2-.3.2-.6,0-.2.1-.4.1-.5s0-.3,0-.5,0-.4,0-.5,0-.3-.1-.4h0c.1.1.2.3.2.5,0,.2,0,.4,0,.6s0,.5-.1.6c-.1.3-.4.7-.8,1h0Z"/>
    <path class="st1" d="M-12.8,75.1s0,0,0,0h0c0,0,0,.1.1.1,0,0,0,0,.1,0,.1,0,.2,0,.3-.2,0,0,.1-.2.1-.4s0-.3-.1-.4c-.1,0-.2-.1-.4-.1h0c.3,0,.5-.2.6-.3s.2-.2.2-.3,0-.1,0-.2c0,0-.1,0-.2,0s-.1,0-.2,0c0,0-.1,0-.2.2h0c0-.1.1-.2.2-.3,0,0,.2,0,.3,0s.3,0,.4.1.1.2.1.3,0,.2-.2.3c0,0-.2.1-.4.2h0c0,0,.1,0,.2.1,0,0,.1.2.1.4s0,.4-.3.6-.4.3-.7.3-.2,0-.2,0c-.1,0-.1,0-.1-.2s0,0,0,0c0,0,0,0,.1,0,0,0,0,0,0,0Z"/>
    <path class="st1" d="M-10.3,73.2c-.1.1-.2.2-.2.3-.1.2-.2.3-.3.6,0,.2-.1.4-.1.6,0,.2,0,.3,0,.4,0,.2,0,.3,0,.4,0,.1,0,.3.1.5h0c-.1-.2-.2-.4-.2-.6s0-.4,0-.6,0-.5.1-.7c.1-.3.4-.6.7-.9h0Z"/>
    <path class="st1" d="M-10.3,75.8s0,0,0,0,0,0,0,0c0,0,0,0,0,0h0s0,0,0,0h0c0,0,.1,0,.3-.2s.2-.2.2-.3,0-.2,0-.4,0-.3-.1-.5c0-.2,0-.3-.1-.4,0,0-.1,0-.2,0h0s0,0,0,0h0c0,0,.4-.1.4-.1h0s0,.1.2.4c0,.2.1.4.1.5v.4c.2-.2.3-.3.3-.4,0-.2.2-.3.2-.4s0,0,0,0c0,0,0,0,0,0h0s0,0,0,0c0,0,0,0,0,0s0,0,0,0,0,0,0,0,0,0,.1,0c0,0,0,0,0,.2,0,.1,0,.3-.2.6s-.2.4-.3.6c-.2.2-.3.4-.4.5-.2.2-.3.3-.4.3s0,0-.1,0,0,0,0-.1c0,0,0,0,0-.1Z"/>
    <path class="st1" d="M-8.7,75.9c.1-.1.2-.2.3-.3,0-.2.2-.3.2-.6,0-.2,0-.4.1-.5s0-.3,0-.5,0-.4,0-.5,0-.3-.1-.4h0c0,.2.2.3.2.5s0,.4,0,.6,0,.5-.1.6c-.1.3-.4.7-.8,1h0Z"/>
    <line class="st3" x1="88.2" y1="-21.3" x2="88.2" y2="164.6"/>
    <line class="st3" x1="110.7" y1="164.6" x2="110.7" y2="-21.3"/>
    <path class="st1" d="M291.1,155.9h.3v1h1.2v-1h.3v2.2h-.3v-1h-1.2v1h-.3v-2.2Z"/>
    <path class="st1" d="M293.2,157.3c0-.5.3-.9.7-.9s.7.2.7.8h0c0,.1-1.2.1-1.2.1,0,.4.2.5.5.5s.4,0,.4-.3h.2c0,.3-.3.5-.6.5-.5,0-.8-.3-.8-.8ZM294.4,157.2c0-.3-.2-.5-.5-.5s-.5.2-.5.5h.9Z"/>
    <path class="st1" d="M295,156c0,0,0-.2.2-.2s.2,0,.2.2,0,.2-.2.2-.2,0-.2-.2ZM295.1,156.5h.2v1.6h-.2v-1.6Z"/>
    <path class="st1" d="M295.8,158.4h.2c0,0,.2.1.5.1s.5-.1.5-.4v-.3h0c0,0-.2.3-.5.3s-.7-.3-.7-.8.3-.8.7-.8.4.2.5.3h0v-.3h.2v1.7c0,.4-.3.6-.7.6-.4,0-.6-.2-.7-.3ZM296.9,157.3c0-.4-.2-.6-.5-.6s-.5.3-.5.6.2.6.5.6.5-.2.5-.6Z"/>
    <path class="st1" d="M297.9,158.1h-.2v-2.2h.2v.8h0c0-.2.2-.3.5-.3s.6.2.6.6v1h-.2v-1c0-.3-.1-.4-.4-.4s-.4.2-.4.4v1Z"/>
    <path class="st1" d="M300.1,156.7h-.4v1c0,.2.1.2.2.2s0,0,.1,0v.2s0,0-.1,0c-.2,0-.4-.1-.4-.4v-1h-.2v-.2h.2v-.4h.2v.4h.4v.2h0Z"/>
    <path class="st1" d="M301.2,157.3c0-.5.3-.9.7-.9s.7.3.7.9-.3.9-.7.9-.7-.3-.7-.9ZM302.5,157.3c0-.3-.1-.6-.5-.6s-.5.3-.5.6.1.6.5.6.5-.3.5-.6Z"/>
    <path class="st1" d="M303.8,156.7h-.4v1.4h-.2v-1.4h-.3v-.2h.3v-.2c0-.3.2-.4.5-.4s.2,0,.2,0v.2c-.1,0-.1,0-.2,0-.2,0-.2,0-.2.2v.2h.4v.2h0Z"/>
    <path class="st1" d="M305,156.7c0-.5.4-.9.9-.9s.9.4.9.9-.4.9-.9.9c-.5,0-.9-.4-.9-.9ZM306.5,156.7c0-.4-.3-.6-.6-.6s-.6.3-.6.6.3.6.6.6.6-.3.6-.6ZM305.5,156.3h.4c.1,0,.2,0,.2.2s0,.2-.1.2l.2.3h-.2v-.3h-.3v.3h-.2v-.8h0ZM305.9,156.7s.1,0,.1-.1,0-.1-.1-.1h-.2v.3h.2Z"/>
    <path class="st1" d="M291.2,160.4h1.3v.2h-1.3v-.2ZM291.2,161.1h1.3v.2h-1.3v-.2Z"/>
    <path class="st1" d="M294.2,161.7h-.2v-2.2h.2v.8h0c0-.2.2-.3.5-.3s.6.2.6.6v1h-.2v-1c0-.3-.1-.4-.4-.4s-.4.2-.4.4v1h0Z"/>
    <path class="st1" d="M295.6,160.9c0-.5.3-.9.7-.9s.7.2.7.8h0c0,.1-1.2.1-1.2.1,0,.4.2.5.5.5s.4,0,.4-.3h.2c0,.3-.3.5-.6.5-.5,0-.8-.3-.8-.8ZM296.8,160.8c0-.3-.2-.5-.5-.5s-.5.2-.5.5h.9Z"/>
    <path class="st1" d="M297.4,159.6c0,0,0-.2.2-.2s.2,0,.2.2,0,.2-.2.2c0,0-.2,0-.2-.2ZM297.5,160.1h.2v1.6h-.2v-1.6Z"/>
    <path class="st1" d="M298.1,162h.2c0,0,.2.1.5.1s.5-.1.5-.4v-.3h0c0,0-.2.3-.5.3s-.7-.3-.7-.8.3-.8.7-.8.4.2.5.3h0v-.3h.2v1.7c0,.4-.3.6-.7.6-.4,0-.6-.2-.7-.3ZM299.3,160.9c0-.4-.2-.6-.5-.6s-.5.3-.5.6.2.6.5.6.5-.2.5-.6Z"/>
    <path class="st1" d="M300.2,161.7h-.2v-2.2h.2v.8h0c0-.2.2-.3.5-.3s.6.2.6.6v1h-.2v-1c0-.3-.1-.4-.4-.4s-.4.2-.4.4v1Z"/>
    <path class="st1" d="M302.5,160.3h-.4v1c0,.2.1.2.2.2s0,0,.1,0v.2s0,0-.1,0c-.2,0-.4-.1-.4-.4v-1h-.2v-.2h.2v-.4h.2v.4h.4v.2h0Z"/>
    <path class="st1" d="M303.6,160.9c0-.5.3-.9.7-.9s.7.3.7.9-.3.9-.7.9-.7-.3-.7-.9ZM304.9,160.9c0-.3-.1-.6-.5-.6s-.5.3-.5.6.1.6.5.6.5-.3.5-.6Z"/>
    <path class="st1" d="M306.2,160.3h-.4v1.4h-.2v-1.4h-.3v-.2h.3v-.2c0-.3.2-.4.5-.4s.2,0,.2,0v.2c-.1,0-.1,0-.2,0-.2,0-.2,0-.2.2v.2h.4v.2h0Z"/>
    <path class="st1" d="M308.1,160.3h-.4v1c0,.2.1.2.2.2s0,0,.1,0v.2s0,0-.1,0c-.2,0-.4-.1-.4-.4v-1h-.2v-.2h.2v-.4h.2v.4h.4v.2h0Z"/>
    <path class="st1" d="M308.8,161.7h-.2v-2.2h.2v.8h0c0-.2.2-.3.5-.3s.6.2.6.6v1h-.2v-1c0-.3-.1-.4-.4-.4s-.4.2-.4.4v1Z"/>
    <path class="st1" d="M310.2,160.9c0-.5.3-.9.7-.9s.7.2.7.8h0c0,.1-1.2.1-1.2.1,0,.4.2.5.5.5s.4,0,.4-.3h.2c0,.3-.3.5-.6.5-.5,0-.8-.3-.8-.8ZM311.4,160.8c0-.3-.2-.5-.5-.5s-.5.2-.5.5h.9Z"/>
    <path class="st1" d="M312.9,159.6c0,0,0-.2.2-.2s.2,0,.2.2,0,.2-.2.2c-.1,0-.2,0-.2-.2ZM312.9,160.1h.2v1.6h-.2v-1.6Z"/>
    <path class="st1" d="M313.8,159.7c0,.2-.1.4-.3.5h-.1c0-.2.2-.4.2-.5v-.2h.2v.2Z"/>
    <path class="st1" d="M314.9,160.5c0-.1-.1-.2-.4-.2s-.4.1-.4.2,0,.2.3.2h.2c.3.1.4.3.4.5s-.3.5-.6.5-.6-.1-.6-.4h.2c0,.1.2.2.4.2s.4-.1.4-.3,0-.2-.2-.2h-.3c-.3-.1-.4-.3-.4-.5s.3-.5.6-.5.5.2.6.4h-.2Z"/>
    <path class="st1" d="M316.3,160.9c0-.5.3-.9.7-.9s.4.2.5.3h0v-.8h.2v2.2h-.2v-.2h0c0,0-.2.3-.5.3-.4,0-.7-.3-.7-.8ZM317.5,160.9c0-.4-.2-.6-.5-.6s-.5.3-.5.6.2.6.5.6c.3,0,.5-.3.5-.6Z"/>
    <path class="st1" d="M318.1,160.9c0-.5.3-.9.7-.9s.7.3.7.9-.3.9-.7.9-.7-.3-.7-.9ZM319.4,160.9c0-.3-.1-.6-.5-.6s-.5.3-.5.6.1.6.5.6.5-.3.5-.6Z"/>
    <path class="st1" d="M320.7,160.3h-.4v1c0,.2.1.2.2.2s0,0,.1,0v.2s0,0-.1,0c-.2,0-.4-.1-.4-.4v-1h-.2v-.2h.2v-.4h.2v.4h.4v.2h0Z"/>
    <path class="st1" d="M190.6,142.4c0-.1.2-.3.3-.4.1,0,.3-.1.4-.1s.2,0,.3.1c0,0,.1.2.1.4,0,.2,0,.4-.2.6s-.4.3-.6.3-.3,0-.5-.2c-.1-.1-.2-.3-.2-.6,0-.4.1-.7.4-1s.6-.5.9-.5.3,0,.4,0l-.2.2c-.1,0-.3-.1-.4-.1-.2,0-.4,0-.6.3,0,.1-.2.3-.2.4,0,.2,0,.4,0,.5h0s0,0,0,0ZM190.6,142.6c0,.4.2.5.5.5s.2,0,.3-.1.1-.2.1-.3,0-.3-.1-.4c0-.1-.2-.1-.3-.1-.3,0-.5.2-.5.5Z"/>
    <line class="st3" x1="149.5" y1="164.6" x2="149.5" y2="-21.3"/>
    <path class="st1" d="M150.1,143.1h.1c0,0,.1,0,.2,0,0,0,0,0,0-.1l.4-1.6s0,0,0,0c0,0,0,0,0,0,0,0,0,0,0,0,0,0,0,0-.1,0h-.2s0,0,0,0h0s.1,0,.2,0,.2,0,.3,0h0s0,0,0,0h0c0,0-.5,2-.5,2,0,0,0,0,0,0h0c0,0,0,.1,0,.1s.1,0,.2,0h0c0,0-.9,0-.9,0h0q0,0,0,0Z"/>
    <path class="st1" d="M152.4,141h.2l-.8,2.2h-.2l.8-2.2Z"/>
    <path class="st1" d="M151.3,145c-.1.1-.2.2-.2.3-.1.2-.2.4-.3.6,0,.2-.1.4-.1.6,0,.2,0,.3,0,.4,0,.2,0,.3,0,.4s0,.3.1.5h0c-.1-.2-.2-.4-.2-.6,0-.2,0-.4,0-.6s0-.5.1-.7c.1-.3.4-.6.7-.9h0Z"/>
    <path class="st1" d="M151.3,147.6s0,0,0,0,0,0,0,0c0,0,0,0,0,0h0s0,0,0,0h0c0,0,.1,0,.3-.2s.2-.2.2-.3,0-.2,0-.4c0-.2,0-.3-.1-.5,0-.2-.1-.3-.1-.4,0,0-.1-.1-.2-.1h0s0,0,0,0h0c0,0,.4-.1.4-.1h0s0,.1.2.4c0,.2.1.4.1.5v.4c.2-.2.3-.3.3-.4.1-.2.2-.3.2-.4s0,0,0,0c0,0,0,0,0,0h0s0,0,0,0,0,0,0-.1,0,0,0,0,0,0,.1,0,.1,0,.1,0,0,0,0,.2c0,.1,0,.3-.2.6-.1.2-.2.4-.3.6-.1.2-.3.4-.4.5-.2.2-.3.3-.4.3s0,0-.1,0,0,0,0-.1c0,0,0,0,0-.1Z"/>
    <path class="st1" d="M152.9,147.7c.1-.1.2-.2.3-.3.1-.2.2-.3.2-.6,0-.2.1-.4.1-.5s0-.3,0-.5,0-.4,0-.5,0-.3-.1-.4h0c.1.1.2.3.2.5,0,.2,0,.4,0,.6s0,.5-.1.6c-.1.3-.4.7-.8,1h0Z"/>
    <path class="st1" d="M152.9,142.4c0-.1.2-.3.3-.4.1,0,.3-.1.4-.1s.2,0,.3.1c0,0,.1.2.1.4,0,.2,0,.4-.2.6s-.4.3-.6.3-.3,0-.5-.2c-.1-.1-.2-.3-.2-.6,0-.4.1-.7.4-1s.6-.5.9-.5.3,0,.4,0l-.2.2c-.1,0-.3-.1-.4-.1-.2,0-.4,0-.6.3,0,.1-.2.3-.2.4,0,.2,0,.4,0,.5h0s0,0,0,0ZM153,142.6c0,.4.2.5.5.5s.2,0,.3-.1.1-.2.1-.3,0-.3-.1-.4c0-.1-.2-.1-.3-.1-.3,0-.5.2-.5.5Z"/>
    <line class="st4" x1="2.6" y1="164.6" x2="2.6" y2="-21.3"/>
    <path class="st0" d="M110.7,6.1v-27.4h11.5V6.5c0,4.5,2.3,7.6,8,7.6s7.9-3.2,7.9-7.8v-27.6h11.5V6.1c0,10.7-6.4,17.2-19.4,17.2s-19.5-6.4-19.5-17.2Z"/>
    <path class="st0" d="M149.5,137.2v27.4h-11.5v-27.8c0-4.6-2.3-7.6-8-7.6s-7.9,3.2-7.9,7.8v27.6h-11.5v-27.4c0-10.7,6.4-17.2,19.4-17.2,13,0,19.5,6.4,19.5,17.2Z"/>
    <path class="st0" d="M-14.6,92.3h-27.4v-11.5H-14.2c4.5,0,7.6-2.3,7.6-8s-3.2-7.9-7.8-7.9h-27.6v-11.5H-14.6c10.7,0,17.2,6.4,17.2,19.3s-6.4,19.5-17.2,19.5Z"/>
    <path class="st0" d="M297.5,53.5h27.4v11.5h-27.8c-4.5,0-7.6,2.3-7.6,8s3.2,7.9,7.8,7.9h27.6v11.5h-27.4c-10.7,0-17.2-6.4-17.2-19.3,0-13,6.4-19.5,17.2-19.5Z"/>
    <line class="st6" x1="-42" y1="23.3" x2="322.8" y2="23.3"/>
    <line class="st6" x1="-42" y1="120" x2="324.8" y2="120"/>
  </g>
</svg>